<svg width="195" height="195" viewBox="0 0 195 195" fill="none" xmlns="http://www.w3.org/2000/svg">
<path d="M85.5 6.9282C92.9256 2.64102 102.074 2.64102 109.5 6.9282L169.937 41.8218C177.363 46.109 181.937 54.032 181.937 62.6064V132.394C181.937 140.968 177.363 148.891 169.937 153.178L109.5 188.072C102.074 192.359 92.9256 192.359 85.5 188.072L25.0625 153.178C17.6369 148.891 13.0625 140.968 13.0625 132.394V62.6064C13.0625 54.032 17.6369 46.109 25.0625 41.8218L85.5 6.9282Z" fill="#6B4FA8"/>
<path d="M138 58.5L141 60.5L144 63L146 64.5C146 64.5 147 65 147.5 66L148.459 67.5195L149.266 69.8926L149.752 71.6338L150 73.5V74.5L133.837 116.604V117.218C133.837 120.171 132.652 122.956 130.616 124.993L124.322 141.391C121.027 139.737 117.181 137.819 113.049 135.763L99.5889 143.703C96.1406 145.737 91.8594 145.737 88.4111 143.703L59.5742 126.692C56.2211 124.714 54.1631 121.111 54.1631 117.218V82.7822C54.1631 78.8891 56.2211 75.2856 59.5742 73.3076L88.4111 56.2969C91.8594 54.2628 96.1406 54.2628 99.5889 56.2969L108.575 61.5977L129.5 54.5L138 58.5Z" fill="#50387E"/>
<path d="M86 40.7735C92.188 37.2008 99.812 37.2008 106 40.7735L130.524 54.9327C130.411 55.0389 130.3 55.1481 130.192 55.2608L117.783 68.2872L102 59.1749C98.5967 57.2101 94.4033 57.2101 91 59.1749L65.1943 74.0743C61.7911 76.0392 59.6944 79.6708 59.6943 83.6006V113.399C59.6947 117.329 61.7912 120.96 65.1943 122.925L91 137.824C94.4033 139.789 98.5967 139.789 102 137.824L127.806 122.925C131.209 120.96 133.305 117.329 133.306 113.399V90.0889L149.86 72.8067C150.318 74.493 150.56 76.2528 150.56 78.0469V117.953C150.559 125.098 146.747 131.701 140.56 135.273L139.663 135.79L143 155.665L118.207 148.178L106 155.227C99.8121 158.799 92.1879 158.799 86 155.227L51.4404 135.273C45.2526 131.701 41.4407 125.098 41.4404 117.953V78.0469C41.4404 70.9017 45.2526 64.2993 51.4404 60.7266L86 40.7735Z" fill="#D3D6FF"/>
<path d="M98.8444 117.5H95.1116C94.3195 117.5 93.5596 117.187 92.9976 116.629L72.886 96.6558C72.3189 96.0926 72 95.3264 72 94.5271V93.8648C72 93.099 72.2928 92.3622 72.8185 91.8054L78.9245 85.3372C79.4913 84.7368 80.2804 84.3966 81.106 84.3966H82.1843C82.9985 84.3966 83.7777 84.7275 84.343 85.3134L94.7174 96.0641C95.1776 96.541 95.8118 96.8103 96.4745 96.8103C97.1427 96.8103 97.7817 96.5365 98.2425 96.0527L133.813 58.7089C133.924 58.5928 134.043 58.4858 134.171 58.3888L134.258 58.323C135.296 57.5347 136.724 57.507 137.792 58.2546L141 60.5L146.83 65.1236C146.943 65.2134 147.047 65.3138 147.142 65.4233C147.912 66.3175 147.877 67.6505 147.06 68.5028L101.011 116.575C100.445 117.166 99.6624 117.5 98.8444 117.5Z" fill="#D3D6FF" fill-opacity="0.75"/>
</svg>
